<?xml version="1.0" encoding="utf-8"?>
<!-- Generator: Adobe Illustrator 15.0.0, SVG Export Plug-In  -->
<!DOCTYPE svg PUBLIC "-//W3C//DTD SVG 1.1//EN" "http://www.w3.org/Graphics/SVG/1.1/DTD/svg11.dtd" [
	<!ENTITY ns_flows "http://ns.adobe.com/Flows/1.0/">
]>
<svg version="1.1"
	 xmlns="http://www.w3.org/2000/svg" xmlns:xlink="http://www.w3.org/1999/xlink" xmlns:a="http://ns.adobe.com/AdobeSVGViewerExtensions/3.0/"
	 x="0px" y="0px" width="1024px" height="768px" viewBox="-92.038 -208.773 1024 768"
	 overflow="visible" enable-background="new -92.038 -208.773 1024 768" xml:space="preserve">
<defs>
</defs>
<path display="none" fill="#808080" d="M197.928,131.955c0-12.553,10.167-22.732,22.721-22.732c0,6.272,5.094,11.367,11.366,11.367
	h11.377c11.355,0,22.721,6.393,22.721,22.73c0,16.695-11.366,22.733-22.721,22.733h-22.743c-11.367,0-22.721-7.044-22.721-22.733
	V131.955z"/>
<path display="none" fill="#999999" d="M21.702,47.23c0-17.807,14.422-32.245,32.229-32.245c0,8.895,7.226,16.123,16.122,16.123
	h16.138c16.107,0,32.229,9.069,32.229,32.244c0,23.681-16.121,32.245-32.229,32.245h-32.26c-16.123,0-32.229-9.992-32.229-32.245
	V47.23z"/>
<path display="none" fill="#CCCCCC" d="M143.957,25.54c0,11.75-8.505,17.026-17.019,17.026h-17.035
	c-8.505,0-17.018-4.522-17.018-17.026c0-12.237,8.513-17.026,17.018-17.026h8.521c4.697,0,8.513-3.816,8.513-8.514
	c9.402,0,17.019,7.624,17.019,17.026V25.54z"/>
<path display="none" fill="#999999" d="M240.429,68.396c0,12.554-11.24,22.732-25.119,22.732c0-6.271-5.632-11.366-12.564-11.366
	h-12.578c-12.555,0-25.119-6.394-25.119-22.732c0-16.694,12.564-22.732,25.119-22.732h25.142c12.566,0,25.119,7.043,25.119,22.732
	V68.396z"/>
<path display="none" fill="#B3B3B3" d="M143.957,156.141c0,16.33-13.226,29.571-29.556,29.571c0-8.158-6.626-14.786-14.785-14.786
	H84.816c-14.771,0-29.556-8.316-29.556-29.569c0-21.716,14.785-29.57,29.556-29.57H114.4c14.785,0,29.556,9.163,29.556,29.57
	V156.141z"/>
<path display="none" fill="#666666" d="M202.745,106.405c0,21.646-17.532,39.199-39.18,39.199c0-10.815-8.785-19.6-19.599-19.6
	h-19.619c-19.581,0-39.18-11.025-39.18-39.198c0-28.787,19.599-39.199,39.18-39.199h39.217c19.6,0,39.18,12.147,39.18,39.199
	V106.405z"/>
<path display="none" fill="#808080" d="M47.415,99.642c0,6.707-5.432,12.145-12.139,12.145c0-3.351-2.722-6.072-6.072-6.072h-6.079
	c-6.066,0-12.139-3.417-12.139-12.145c0-8.919,6.072-12.145,12.139-12.145h12.151c6.072,0,12.139,3.764,12.139,12.145V99.642z"/>
<path display="none" fill="#B3B3B3" d="M17.974,167.69c0-8.292,6.001-12.015,12.009-12.015h12.021
	c6.001,0,12.008,3.191,12.008,12.015c0,8.635-6.007,12.014-12.008,12.014H35.99c-3.314,0-6.007,2.692-6.007,6.007
	c-6.635,0-12.009-5.379-12.009-12.014V167.69z"/>
<path fill="#7FCDBB" d="M188.274,131.012c0-12.553,10.167-22.732,22.721-22.732c0,6.272,5.094,11.367,11.366,11.367h11.377
	c11.355,0,22.721,6.393,22.721,22.73c0,16.695-11.366,22.733-22.721,22.733h-22.743c-11.367,0-22.721-7.044-22.721-22.733V131.012z"
	/>
<path fill="#7FCDBB" d="M21.297,148.638c0,12.019,8.699,17.416,17.406,17.416h17.423c8.699,0,17.406-4.626,17.406-17.416
	c0-12.516-8.707-17.413-17.406-17.413h-8.716c-4.804,0-8.708-3.903-8.708-8.707c-9.617,0-17.406,7.797-17.406,17.414V148.638z"/>
<path fill="#0C2C84" d="M266.113,42.312c0-6.707-5.432-12.145-12.139-12.145c0,3.352-2.722,6.073-6.072,6.073h-6.079
	c-6.066,0-12.139,3.417-12.139,12.145c0,8.919,6.072,12.145,12.139,12.145h12.151c6.072,0,12.139-3.764,12.139-12.145V42.312z"/>
<path fill="#0C2C84" d="M21.702,47.23c0-17.807,14.422-32.245,32.229-32.245c0,8.895,7.226,16.123,16.122,16.123h16.138
	c16.107,0,32.229,9.069,32.229,32.244c0,23.681-16.121,32.245-32.229,32.245h-32.26c-16.123,0-32.229-9.992-32.229-32.245V47.23z"/>
<path fill="#1D91C0" d="M202.745,106.405c0,21.646-17.532,39.199-39.18,39.199c0-10.815-8.785-19.6-19.599-19.6h-19.619
	c-19.581,0-39.18-11.025-39.18-39.198c0-28.787,19.599-39.199,39.18-39.199h39.217c19.6,0,39.18,12.147,39.18,39.199V106.405z"/>
<path fill="#666666" d="M143.957,25.54c0,11.75-8.505,17.026-17.019,17.026h-17.035c-8.505,0-17.018-4.522-17.018-17.026
	c0-12.237,8.513-17.026,17.018-17.026h8.521c4.697,0,8.513-3.816,8.513-8.514c9.402,0,17.019,7.624,17.019,17.026V25.54z"/>
<path fill="#999999" d="M240.429,68.396c0,12.554-11.24,22.732-25.119,22.732c0-6.271-5.632-11.366-12.564-11.366h-12.578
	c-12.555,0-25.119-6.394-25.119-22.732c0-16.694,12.564-22.732,25.119-22.732h25.142c12.566,0,25.119,7.043,25.119,22.732V68.396z"
	/>
<path fill="#999999" d="M55.26,156.141c0,16.33,13.226,29.571,29.556,29.571c0-8.158,6.626-14.786,14.785-14.786h14.799
	c14.771,0,29.556-8.316,29.556-29.569c0-21.716-14.785-29.57-29.556-29.57H84.816c-14.785,0-29.556,9.163-29.556,29.57V156.141z"/>
<path fill="#808080" d="M47.415,99.642c0,6.707-5.432,12.145-12.139,12.145c0-3.351-2.722-6.072-6.072-6.072h-6.079
	c-6.066,0-12.139-3.417-12.139-12.145c0-8.919,6.072-12.145,12.139-12.145h12.151c6.072,0,12.139,3.764,12.139,12.145V99.642z"/>
<path fill="#808080" d="M271.095,168.146c0,6.707-5.432,12.145-12.139,12.145c0-3.352-2.722-6.072-6.072-6.072h-6.079
	c-6.066,0-12.139-3.417-12.139-12.145c0-8.919,6.072-12.145,12.139-12.145h12.151c6.072,0,12.139,3.764,12.139,12.145V168.146z"/>
<path fill="#808080" d="M36.428,178.264c0,6.707-5.432,12.145-12.139,12.145c0-3.352-2.722-6.072-6.072-6.072h-6.079
	C6.072,184.336,0,180.919,0,172.191c0-8.919,6.072-12.145,12.139-12.145H24.29c6.072,0,12.139,3.764,12.139,12.145V178.264z"/>
<rect x="72.297" y="196.894" fill="none" width="161.333" height="45.333"/>
<text transform="matrix(1 0 0 1 87.0127 205.2939)"><tspan x="0" y="0" font-family="'QuicksandBook-Regular'" font-size="12">Decision Engine filters </tspan><tspan x="11.118" y="14.399" font-family="'QuicksandBook-Regular'" font-size="12">through that mess</tspan></text>
</svg>
