<?xml version="1.0" encoding="utf-8"?>
<!-- Generator: Adobe Illustrator 15.0.0, SVG Export Plug-In  -->
<!DOCTYPE svg PUBLIC "-//W3C//DTD SVG 1.1//EN" "http://www.w3.org/Graphics/SVG/1.1/DTD/svg11.dtd" [
	<!ENTITY ns_flows "http://ns.adobe.com/Flows/1.0/">
]>
<svg version="1.1"
	 xmlns="http://www.w3.org/2000/svg" xmlns:xlink="http://www.w3.org/1999/xlink" xmlns:a="http://ns.adobe.com/AdobeSVGViewerExtensions/3.0/"
	 x="0px" y="0px" width="1024px" height="768px" viewBox="-70 -202.534 1024 768"
	 overflow="visible" enable-background="new -70 -202.534 1024 768" xml:space="preserve">
<defs>
</defs>
<polygon fill="#B3B3B3" points="146,147.403 98,159.936 98,53.037 146,67.044 "/>
<polygon fill="#B3B3B3" points="266,135.138 219,147.472 219,67.053 266,80.374 "/>
<line display="none" fill="none" stroke="#B3B3B3" stroke-width="0.5" x1="42.252" y1="27.047" x2="26.918" y2="74.134"/>
<line display="none" fill="none" stroke="#B3B3B3" stroke-width="0.5" x1="47.722" y1="27.414" x2="32.388" y2="74.501"/>
<line display="none" fill="none" stroke="#B3B3B3" stroke-width="0.5" x1="53.191" y1="27.781" x2="37.857" y2="74.868"/>
<line display="none" fill="none" stroke="#B3B3B3" stroke-width="0.5" x1="58.661" y1="28.147" x2="43.327" y2="75.235"/>
<line display="none" fill="none" stroke="#B3B3B3" stroke-width="0.5" x1="64.13" y1="28.514" x2="48.796" y2="75.602"/>
<line display="none" fill="none" stroke="#B3B3B3" stroke-width="0.5" x1="69.6" y1="28.881" x2="54.265" y2="75.968"/>
<line display="none" fill="none" stroke="#B3B3B3" stroke-width="0.5" x1="75.069" y1="29.248" x2="59.735" y2="76.335"/>
<line display="none" fill="none" stroke="#B3B3B3" stroke-width="0.5" x1="80.539" y1="29.615" x2="65.204" y2="76.702"/>
<line display="none" fill="none" stroke="#B3B3B3" stroke-width="0.5" x1="86.008" y1="29.981" x2="70.673" y2="77.068"/>
<line display="none" fill="none" stroke="#B3B3B3" stroke-width="0.5" x1="91.477" y1="30.348" x2="76.143" y2="77.435"/>
<line display="none" fill="none" stroke="#B3B3B3" stroke-width="0.5" x1="96.947" y1="30.715" x2="81.612" y2="77.802"/>
<line display="none" fill="none" stroke="#B3B3B3" stroke-width="0.5" x1="102.416" y1="31.082" x2="87.082" y2="78.168"/>
<line display="none" fill="none" stroke="#B3B3B3" stroke-width="0.5" x1="107.885" y1="31.448" x2="92.551" y2="78.536"/>
<line display="none" fill="none" stroke="#B3B3B3" stroke-width="0.5" x1="113.354" y1="31.815" x2="98.02" y2="78.902"/>
<line display="none" fill="none" stroke="#B3B3B3" stroke-width="0.5" x1="118.825" y1="32.182" x2="103.49" y2="79.269"/>
<line display="none" fill="none" stroke="#B3B3B3" stroke-width="0.5" x1="124.293" y1="32.548" x2="108.959" y2="79.636"/>
<line display="none" fill="none" stroke="#B3B3B3" stroke-width="0.5" x1="129.763" y1="32.916" x2="114.429" y2="80.002"/>
<line display="none" fill="none" stroke="#B3B3B3" stroke-width="0.5" x1="135.232" y1="33.282" x2="119.898" y2="80.369"/>
<line display="none" fill="none" stroke="#B3B3B3" stroke-width="0.5" x1="140.702" y1="33.649" x2="125.368" y2="80.736"/>
<line display="none" fill="none" stroke="#B3B3B3" stroke-width="0.5" x1="146.172" y1="34.016" x2="130.837" y2="81.103"/>
<line display="none" fill="none" stroke="#B3B3B3" stroke-width="0.5" x1="151.641" y1="34.382" x2="136.307" y2="81.469"/>
<line display="none" fill="none" stroke="#B3B3B3" stroke-width="0.5" x1="157.11" y1="34.749" x2="141.776" y2="81.836"/>
<line display="none" fill="none" stroke="#B3B3B3" stroke-width="0.5" x1="162.58" y1="35.116" x2="147.245" y2="82.203"/>
<line display="none" fill="none" stroke="#B3B3B3" stroke-width="0.5" x1="168.049" y1="35.482" x2="152.715" y2="82.57"/>
<line display="none" fill="none" stroke="#B3B3B3" stroke-width="0.5" x1="173.518" y1="35.849" x2="158.184" y2="82.937"/>
<line display="none" fill="none" stroke="#B3B3B3" stroke-width="0.5" x1="178.988" y1="36.216" x2="163.653" y2="83.303"/>
<line display="none" fill="none" stroke="#B3B3B3" stroke-width="0.5" x1="184.458" y1="36.583" x2="169.123" y2="83.67"/>
<line display="none" fill="none" stroke="#B3B3B3" stroke-width="0.5" x1="189.926" y1="36.95" x2="174.592" y2="84.037"/>
<line display="none" fill="none" stroke="#B3B3B3" stroke-width="0.5" x1="195.396" y1="37.316" x2="188.457" y2="58.292"/>
<rect y="53.466" fill="#999999" width="98" height="107"/>
<rect x="146" y="67.466" fill="#999999" width="73" height="80"/>
<rect x="266" y="80.466" fill="#999999" width="63" height="55"/>
<rect x="89.667" y="183.611" display="none" fill="none" width="112.666" height="60"/>
<text transform="matrix(1 0 0 1 89.667 192.0103)" display="none"><tspan x="0" y="0" display="inline" fill="#2D2D2D" font-family="'QuicksandBook-Regular'" font-size="12">Shows conver</tspan><tspan x="83.963" y="0" display="inline" fill="#2D2D2D" font-family="'QuicksandBook-Regular'" font-size="12">-</tspan><tspan x="0" y="14.4" display="inline" fill="#2D2D2D" font-family="'QuicksandBook-Regular'" font-size="12">stion rates at each </tspan><tspan x="0" y="28.801" display="inline" fill="#2D2D2D" font-family="'QuicksandBook-Regular'" font-size="12">step of the funnel</tspan></text>
<path display="none" fill="none" stroke="#B3B3B3" d="M42.334,83.8C27.001,28.8,59.499,15.014,86,13.766"/>
<path display="none" fill="none" stroke="#B3B3B3" d="M204.754,200.265c31.077,1.932,55.66-49.59,37.746-81.464"/>
<rect x="87.832" y="1.8" display="none" fill="none" width="98.754" height="42"/>
<text transform="matrix(1 0 0 1 87.8315 10.1997)" display="none"><tspan x="0" y="0" display="inline" font-family="'QuicksandBook-Regular'" font-size="12">Shows product </tspan><tspan x="0" y="14.4" display="inline" font-family="'QuicksandBook-Regular'" font-size="12">ranking</tspan></text>
<polygon display="none" fill="#CCCCCC" points="237.386,121.201 239.899,114.152 246.826,116.621 "/>
<polygon display="none" fill="#CCCCCC" points="46.936,81.867 44.063,88.777 37.273,85.954 "/>
</svg>
